<svg id="Layer_1" data-name="Layer 1" xmlns="http://www.w3.org/2000/svg" viewBox="0 0 2680.22 4435.02"><defs><style>.cls-1{fill:none;stroke:#fff;stroke-miterlimit:10;stroke-width:4px;opacity:0.5;}</style></defs><path class="cls-1" d="M1461-429.6,1176.26-4.24l-9,70.75L1065.18,206l-1.27,2.75a542.84,542.84,0,0,1-32.25,58.44c-16.7,26-41.22,59.19-73.34,71.76a106.55,106.55,0,0,0,0,14.19,103,103,0,0,0,2.76,18.35c12.61,6.9,25.71,21,32.5,49.54,3.36,14.09,5.38,31.65,6.16,53.67,1.21,33.85-1,66.86-1.08,68.25l-.6,8.86-16.55,40.33,45,87.74-27.17,211L647.3,796.08,480.13,845,360,794.51s-23.3-21.41-69.08-27.14-125.29,31.71-125.29,31.71l-110,7.42L-4.19,717.74-159.51,829.16M960.83,385.67h0Z" transform="translate(160.67 430.71)"/><path class="cls-1" d="M1101.64,285l408.59,308.35,70.13,13,133.52,109.83,2.68,1.42a542.34,542.34,0,0,1,56.51,35.5c25,18.14,56.77,44.5,67.51,77.28a105.86,105.86,0,0,0,14.17.77,103.27,103.27,0,0,0,18.47-1.73c7.6-12.2,22.47-24.48,51.3-29.65,14.26-2.55,31.9-3.57,53.93-3.12,33.86.71,66.7,4.77,68.08,4.94l8.82,1.11,39.33,18.79,90.14-40L2516,799.72l-236.64,367,39.38,169.66-57.19,117.08s-22.69,22-31,67.43,24.58,126.89,24.58,126.89l1.19,110.23-92,54.72L2266.8,1974.1M1887.33,830.5v0Z" transform="translate(160.67 430.71)"/><path class="cls-1" d="M2317.29,2210.92l-334.15,345L1963,2619.72l-188.29,107.17,18.56,179.1L1727,3139,1523.3,3289.84l-45.42,219.81-115.32-149.23-191.1-76.2-97,372.05L816.75,4003.12m902.19-1123.34h0Z" transform="translate(160.67 430.71)"/></svg>