<?xml version="1.0" encoding="utf-8"?>
<!-- Generator: Adobe Illustrator 25.3.1, SVG Export Plug-In . SVG Version: 6.00 Build 0)  -->
<svg version="1.1" id="Layer_1" xmlns="http://www.w3.org/2000/svg" xmlns:xlink="http://www.w3.org/1999/xlink" x="0px" y="0px"
	 viewBox="0 0 2465 5547" style="enable-background:new 0 0 2465 5547;" xml:space="preserve">
<style type="text/css">
	.bgst0{opacity:0.2;fill:none;stroke:#7F84F0;stroke-width:3;stroke-miterlimit:10;}
	.bgst1{fill:none;stroke:#FFFFFF;stroke-width:3;stroke-miterlimit:10;}
	.bgst2{opacity:0.1;fill:none;stroke:#7F84F0;stroke-width:3;stroke-miterlimit:10;}
</style>
<path class="bgst0" d="M3,5146.1l308.3-209.2l499.4-57.8l-38.6-259.6L657,4422.6l301.6-249.8l298.8-56.6l175.4-20.6l277.7,41.7
	l128.2-281.2l341.7-67.8l284.5-230.2 M1410.3,4278.6C1410.3,4278.6,1410.3,4278.5,1410.3,4278.6
	C1410.3,4278.5,1410.3,4278.6,1410.3,4278.6z"/>
<path class="bgst1" d="M2465.3,193.6l-465.8,334.1l-350.5-188.6l-382.3,12.3l-303.9-10.7L820.2,487.1L549,340.7L341.6,569l-267.3-4.2
	L-0.5,747.2 M882.5,313.6C882.5,313.6,882.5,313.6,882.5,313.6C882.5,313.6,882.5,313.6,882.5,313.6z"/>
<path class="bgst2" d="M1589.7,1311.4l-95.3-8.4l-158.7,139.7l-286.3-6.6l-45.1,101.3l-128.6,73.2L429.9,1570L3,1705.6 M875.7,1610.7"
	/>
</svg>
